
FULL_INFOs


99.99% --- SYNCED GUARANTEED 

Source : DVD

My Media Player of Choice "VLC Media Player"

Spoken Language : English Only

Audio : 2 ~ Channels Only


 
http://www.imdb.com/title/tt0096073/




Subs Info : MULTI_SUBS


 
http://www.subtitleseeker.com/0096073/The+Seventh+Sign/Subtitles/

101 Subtitles In 24 Languages Use Link Provided 
 
http://www.subtitleseeker.com/0096073/The+Seventh+Sign/Subtitles/

101 Subtitles In 24 Languages Only @ SubtitleSeeker
 
http://www.subtitleseeker.com/0096073/The+Seventh+Sign/Subtitles/

All .srt subs can be turned On/Off


 
http://www.imdb.com/title/tt0096073/


General 

Complete name : The Seventh Sign 1988.DVDRip.H.263.XviD . NVEE.avi 
Format : AVI 
Format/Info : Audio Video Interleave 
File size : 1.02 GiB 
Duration : 1h 33mn 
Overall bit rate : 1 568 Kbps 
Writing application : VirtualDubMod 1.5.4.1 (build 2178/release) 
Writing library : VirtualDubMod build 2178/release 

Video 

ID : 0 
Format : MPEG-4 Visual 
Format profile : Simple@L3 
Format settings, BVOP : No 
Format settings, QPel : No 
Format settings, GMC : No warppoints 
Format settings, Matrix : Default (H.263) 
Codec ID : XVID 
Codec ID/Hint : XviD 
Duration : 1h 33mn 
Bit rate : 1 304 Kbps 
Width : 720 pixels 
Height : 304 pixels 
Display aspect ratio : 2.35:1 
Frame rate : 25.000 fps 
Color space : YUV 
Chroma subsampling : 4:2:0 
Bit depth : 8 bits 
Scan type : Progressive 
Compression mode : Lossy 
Bits/(Pixel*Frame) : 0.238 
Stream size : 868 MiB (83%) 
Writing library : XviD 1.2.1 (UTC 2008-12-04) 

Audio 

ID : 1 
Format : AC-3 
Format/Info : Audio Coding 3 
Format profile : Dolby Digital 
Mode extension : CM (complete main) 
Format settings, Endianness : Big 
Codec ID : 2000 
Duration : 1h 33mn 
Bit rate mode : Constant 
Bit rate : 256 Kbps 
Channel(s) : 2 channels 
Channel positions : Front: L R 
Sampling rate : 48.0 KHz 
Bit depth : 16 bits 
Compression mode : Lossy 
Stream size : 170 MiB (16%) 
Alignment : Split accross interleaves 
Interleave, duration : 80 ms (2.00 video frames) 
Interleave, preload duration : 500 ms 
Language : English 




 
http://www.imdb.com/title/tt0096073/





Plot

Signs of the apocalypse are appearing, along with a mysterious wanderer. Father Lucci (Peter Friedman) is the Vatican official investigating them. He dismisses the occurrences as natural, but Abby Quinn (Demi Moore) believes that they are real.
In the film, Jürgen Prochnow portrays Jesus' return to Earth in the year 1988 to judge humanity.
In Jewish mysticism the Chamber of Guf (also Guph or even Gup) Hebrew for "body", also called the Otzar (Hebrew for "treasury"), is the Hall of Souls, located in the Seventh Heaven[citation needed]. Every human soul is held to emanate from the Guf. A possible (though not a literal) reading of the Talmud, Yevamot 62a, is that the Messiah will not come until the Guf is emptied of all its souls.
The final judgment is averted by an act of faith that prevents the final sign of the apocalypse from occurring. In the film, through a flashback, Prochnow also portrays the original Jesus on the eve of his crucifixion. Father Lucci is revealed to be Cartaphilus, a Roman Centurion and Pilate's porter who struck Jesus before his death and was sentenced to wander the Earth until Christ returned to judge mankind. The Lucci-Cartaphilus character is a combination of the Longinus and the Wandering Jew legends. In the movie, Abby- who is soon to give birth- discovers that she is actually the reborn woman some identify as Seraphia, the woman who offered Christ water during the Crucifixion but was turned away by Cartaphilus. She learns that the prophecies lead up to the birth of her child, who may not survive because there will be no more souls left for the newborns unless someone offers their own.


Please SEED !!!



